<svg width="1227" height="273" viewBox="0 0 1227 273" fill="none" xmlns="http://www.w3.org/2000/svg">
<path d="M1347.29 54.2828L1362.62 68.3782C1530.61 222.802 1385.11 499.879 1162.62 449.258L869.549 382.58C831.579 373.941 792.299 372.715 753.865 378.97L194.469 470.001C116.63 482.668 107.215 314.457 28.7633 322.5C-58.8132 331.479 75.4674 237.61 203.962 157.034C315.311 87.2095 456.778 92.1788 566.839 164.019C623.803 201.201 690.359 221 758.384 221H759.839C848.041 221 932.938 187.432 997.291 127.112L1057.15 71C1131.82 -15.4563 1263.19 -23.026 1347.29 54.2828Z" fill="#4D2A89"/>
</svg>
